<?xml version="1.0" encoding="UTF-8" standalone="no"?>
<!DOCTYPE svg PUBLIC "-//W3C//DTD SVG 1.1//EN" "http://www.w3.org/Graphics/SVG/1.1/DTD/svg11.dtd">
<svg width="100%" height="100%" viewBox="0 0 400 400" version="1.1" xmlns="http://www.w3.org/2000/svg" xmlns:xlink="http://www.w3.org/1999/xlink" xml:space="preserve" xmlns:serif="http://www.serif.com/" style="fill-rule:evenodd;clip-rule:evenodd;stroke-linejoin:round;stroke-miterlimit:2;">
    <path d="M400,100C400,44.808 355.192,0 300,0L100,0C44.808,0 0,44.808 0,100L0,300C0,355.192 44.808,400 100,400L300,400C355.192,400 400,355.192 400,300L400,100ZM200,160.313C150.673,160.313 110.625,195.879 110.625,239.688C110.625,283.496 150.673,319.062 200,319.062L200,160.313ZM200,80.938C249.327,80.938 289.375,116.504 289.375,160.313C289.375,204.121 249.327,239.687 200,239.688L200,80.938Z" style="fill:white;"/>
</svg>
